<svg id="_39_DJ" enable-background="new 0 0 512 512" viewBox="0 0 512 512" xmlns="http://www.w3.org/2000/svg" xmlns:xlink="http://www.w3.org/1999/xlink"><linearGradient id="SVGID_1_" gradientTransform="matrix(1 0 0 -1 0 514)" gradientUnits="userSpaceOnUse" x1="234.913" x2="261.012" y1="204.224" y2="71.075"><stop offset="0" stop-color="#fef0ae"/><stop offset="1" stop-color="#fac600"/></linearGradient><linearGradient id="lg1"><stop offset="0" stop-color="#fe9738" stop-opacity="0"/><stop offset=".1025" stop-color="#fe9738" stop-opacity=".02"/><stop offset=".2265" stop-color="#fe9738" stop-opacity=".078"/><stop offset=".3615" stop-color="#fe9738" stop-opacity=".175"/><stop offset=".5046" stop-color="#fe9738" stop-opacity=".31"/><stop offset=".6539" stop-color="#fe9738" stop-opacity=".483"/><stop offset=".8085" stop-color="#fe9738" stop-opacity=".695"/><stop offset=".9645" stop-color="#fe9738" stop-opacity=".94"/><stop offset="1" stop-color="#fe9738"/></linearGradient><linearGradient id="SVGID_00000013892492015309519580000005813339760363378861_" gradientTransform="matrix(1 0 0 -1 0 514)" gradientUnits="userSpaceOnUse" x1="256" x2="256" xlink:href="#lg1" y1="125.297" y2="89.945"/><linearGradient id="SVGID_00000127011033308251945110000001693716237913917324_" gradientTransform="matrix(1 0 0 -1 0 514)" gradientUnits="userSpaceOnUse" x1="375.311" x2="448.045" xlink:href="#lg1" y1="159.063" y2="159.063"/><linearGradient id="SVGID_00000098943086651621187760000001610581423662850480_" gradientTransform="matrix(1 0 0 -1 0 514)" gradientUnits="userSpaceOnUse" x1="287.036" x2="264.581" xlink:href="#lg1" y1="153.747" y2="214.697"/><linearGradient id="lg2"><stop offset="0" stop-color="#ffa78f"/><stop offset="1" stop-color="#ec806b"/></linearGradient><linearGradient id="SVGID_00000118389030607467470220000001589022334707723190_" gradientTransform="matrix(1 0 0 -1 0 514)" gradientUnits="userSpaceOnUse" x1="254.843" x2="271.952" xlink:href="#lg2" y1="249.428" y2="203.804"/><linearGradient id="lg3"><stop offset="0" stop-color="#ca6e59" stop-opacity="0"/><stop offset=".2835" stop-color="#b9614e" stop-opacity=".256"/><stop offset=".9086" stop-color="#8e4332" stop-opacity=".902"/><stop offset="1" stop-color="#883f2e"/></linearGradient><linearGradient id="SVGID_00000014630514001545981220000007186840882808981181_" gradientTransform="matrix(1 0 0 -1 0 514)" gradientUnits="userSpaceOnUse" x1="255.998" x2="255.998" xlink:href="#lg3" y1="193.192" y2="235.018"/><linearGradient id="lg4"><stop offset="0" stop-color="#537983"/><stop offset="1" stop-color="#384949"/></linearGradient><linearGradient id="SVGID_00000145049431569391184120000002370668262548312465_" gradientTransform="matrix(.966 -.259 -.259 -.966 761.153 181.528)" gradientUnits="userSpaceOnUse" x1="-652.973" x2="-605.411" xlink:href="#lg4" y1="62.325" y2="62.325"/><linearGradient id="lg5"><stop offset="0" stop-color="#554e56" stop-opacity="0"/><stop offset=".3985" stop-color="#4c464d" stop-opacity=".143"/><stop offset=".7711" stop-color="#322f33" stop-opacity=".577"/><stop offset="1" stop-color="#1a1a1a"/></linearGradient><linearGradient id="SVGID_00000150065487094401775060000012407528084385550465_" gradientTransform="matrix(.966 -.259 -.259 -.966 761.153 181.528)" gradientUnits="userSpaceOnUse" x1="-621.331" x2="-598.803" xlink:href="#lg5" y1="62.325" y2="62.325"/><linearGradient id="SVGID_00000015312378560427214960000010327412532821887146_" gradientTransform="matrix(.966 -.259 -.259 -.966 761.153 181.528)" gradientUnits="userSpaceOnUse" x1="-621.613" x2="-621.613" xlink:href="#lg5" y1="56.476" y2="2.577"/><linearGradient id="SVGID_00000059296883597528086380000004390561666166641064_" gradientTransform="matrix(.966 -.259 -.259 -.966 761.153 181.528)" gradientUnits="userSpaceOnUse" x1="-598.493" x2="-571.094" xlink:href="#lg4" y1="62.325" y2="62.325"/><linearGradient id="SVGID_00000158721508767977645330000004325488785186122915_" gradientTransform="matrix(.966 -.259 -.259 -.966 761.153 181.528)" gradientUnits="userSpaceOnUse" x1="-584.794" x2="-584.794" xlink:href="#lg5" y1="14.241" y2="3.784"/><linearGradient id="SVGID_00000057840716928886259110000002449105661781870262_" gradientTransform="matrix(.94 .342 .342 -.94 -160.879 418.816)" gradientUnits="userSpaceOnUse" x1="188.284" x2="222.247" xlink:href="#lg2" y1="402.577" y2="368.614"/><linearGradient id="SVGID_00000103248464349948724430000011523124860257204389_" gradientTransform="matrix(.94 .342 .342 -.94 -160.879 418.816)" gradientUnits="userSpaceOnUse" x1="311.177" x2="416.433" xlink:href="#lg2" y1="406.265" y2="301.01"/><linearGradient id="SVGID_00000101796149914636885550000005185640963431322270_" gradientTransform="matrix(.94 .342 .342 -.94 -160.879 418.816)" gradientUnits="userSpaceOnUse" x1="319.196" x2="319.196" xlink:href="#lg3" y1="407.173" y2="434.126"/><linearGradient id="SVGID_00000130607466322699947500000000841897128225047962_" gradientTransform="matrix(.94 .342 .342 -.94 -160.879 418.816)" gradientUnits="userSpaceOnUse" x1="369.825" x2="436.875" xlink:href="#lg3" y1="398.247" y2="398.247"/><linearGradient id="SVGID_00000170970180540993975970000003254389673071527820_" gradientTransform="matrix(.94 .342 .342 -.94 -160.879 418.816)" gradientUnits="userSpaceOnUse" x1="319.196" x2="319.196" xlink:href="#lg3" y1="301.104" y2="241.941"/><linearGradient id="lg6"><stop offset="0" stop-color="#c4573a" stop-opacity="0"/><stop offset=".1393" stop-color="#c15539" stop-opacity=".044"/><stop offset=".3244" stop-color="#b95237" stop-opacity=".167"/><stop offset=".5354" stop-color="#ad4e35" stop-opacity=".37"/><stop offset=".7654" stop-color="#9c4732" stop-opacity=".654"/><stop offset="1" stop-color="#883f2e"/></linearGradient><linearGradient id="SVGID_00000057145721901926327950000008449014912827900852_" gradientTransform="matrix(.94 .342 .342 -.94 -160.879 418.816)" gradientUnits="userSpaceOnUse" x1="319.196" x2="319.196" xlink:href="#lg6" y1="365.371" y2="326.237"/><linearGradient id="SVGID_00000170994448926615034360000005903807192078779318_" gradientTransform="matrix(.94 .342 .342 -.94 -160.879 418.816)" gradientUnits="userSpaceOnUse" x1="325.949" x2="349.04" xlink:href="#lg6" y1="360.695" y2="355.078"/><linearGradient id="SVGID_00000143575859191771370900000012175528779880551307_" gradientTransform="matrix(-.94 -.342 .342 -.94 -2771.345 -531.316)" gradientUnits="userSpaceOnUse" x1="-3090.442" x2="-3067.351" y1="360.695" y2="355.078"><stop offset="0" stop-color="#ffddcd" stop-opacity="0"/><stop offset=".08864126" stop-color="#ffddcd" stop-opacity=".027"/><stop offset=".2159" stop-color="#ffddcd" stop-opacity=".101"/><stop offset=".3664" stop-color="#ffddcd" stop-opacity=".223"/><stop offset=".5348" stop-color="#ffddcd" stop-opacity=".393"/><stop offset=".718" stop-color="#ffddcd" stop-opacity=".612"/><stop offset=".9108" stop-color="#ffddcd" stop-opacity=".873"/><stop offset=".9972" stop-color="#ffddcd"/></linearGradient><linearGradient id="SVGID_00000096042413217349230850000000104210837050593670_" gradientTransform="matrix(.94 .342 .342 -.94 -160.879 418.816)" gradientUnits="userSpaceOnUse" x1="266.921" x2="266.921" xlink:href="#lg4" y1="459.795" y2="365.848"/><linearGradient id="SVGID_00000143575825609363567470000012412768400651973265_" gradientTransform="matrix(.94 .342 .342 -.94 -160.879 418.816)" gradientUnits="userSpaceOnUse" x1="371.47" x2="371.47" xlink:href="#lg4" y1="459.795" y2="365.848"/><linearGradient id="SVGID_00000063624627599974198770000004418250853080480928_" gradientTransform="matrix(.94 .342 .342 -.94 -160.879 418.816)" gradientUnits="userSpaceOnUse" x1="404.615" x2="378.345" xlink:href="#lg3" y1="463.231" y2="465.836"/><linearGradient id="SVGID_00000145747672220609070750000005074628296597195685_" gradientTransform="matrix(.94 .342 .342 -.94 -160.879 418.816)" gradientUnits="userSpaceOnUse" x1="402.945" x2="396.214" xlink:href="#lg3" y1="452.968" y2="474.896"/><linearGradient id="lg7"><stop offset="0" stop-color="#f5fbff"/><stop offset="1" stop-color="#91dcfa"/></linearGradient><linearGradient id="SVGID_00000176737801209477645350000003358470431968469901_" gradientTransform="matrix(.94 .342 .342 -.94 -160.879 418.816)" gradientUnits="userSpaceOnUse" x1="400.463" x2="400.463" xlink:href="#lg7" y1="443.393" y2="426.805"/><linearGradient id="lg8"><stop offset="0" stop-color="#60b7ff" stop-opacity="0"/><stop offset=".1205" stop-color="#60b7ff" stop-opacity=".016"/><stop offset=".2454" stop-color="#60b7ff" stop-opacity=".065"/><stop offset=".3724" stop-color="#60b7ff" stop-opacity=".147"/><stop offset=".5008" stop-color="#60b7ff" stop-opacity=".261"/><stop offset=".6304" stop-color="#60b7ff" stop-opacity=".408"/><stop offset=".761" stop-color="#60b7ff" stop-opacity=".588"/><stop offset=".8898" stop-color="#60b7ff" stop-opacity=".797"/><stop offset="1" stop-color="#60b7ff"/></linearGradient><linearGradient id="SVGID_00000110457534154462402470000005743122709293811364_" gradientTransform="matrix(.94 .342 .342 -.94 -160.879 418.816)" gradientUnits="userSpaceOnUse" x1="392.058" x2="375.026" xlink:href="#lg8" y1="437.422" y2="437.422"/><linearGradient id="SVGID_00000010998748060979257110000011978811156635990443_" gradientTransform="matrix(.94 .342 .342 -.94 -160.879 418.816)" gradientUnits="userSpaceOnUse" x1="415.281" x2="426.859" xlink:href="#lg8" y1="437.422" y2="437.422"/><linearGradient id="SVGID_00000124841906767939783580000016809753018250154368_" gradientTransform="matrix(.94 .342 .342 -.94 -160.879 418.816)" gradientUnits="userSpaceOnUse" x1="187.634" x2="187.634" xlink:href="#lg7" y1="443.393" y2="426.805"/><linearGradient id="SVGID_00000137824202024587196050000003097853925714922910_" gradientTransform="matrix(.94 .342 .342 -.94 -160.879 418.816)" gradientUnits="userSpaceOnUse" x1="188.85" x2="205.66" xlink:href="#lg8" y1="438.388" y2="436.618"/><linearGradient id="lg9"><stop offset="0" stop-color="#e5caf3"/><stop offset="1" stop-color="#af66da"/></linearGradient><linearGradient id="SVGID_00000021099222870612998120000016484473707639043764_" gradientTransform="matrix(.94 .342 .342 -.94 -160.879 418.816)" gradientUnits="userSpaceOnUse" x1="272.968" x2="322.069" xlink:href="#lg9" y1="525.312" y2="450.996"/><linearGradient id="SVGID_00000081635410908216506460000011775577007873151114_" gradientTransform="matrix(.94 .342 .342 -.94 -160.879 418.816)" gradientUnits="userSpaceOnUse" x1="294.888" x2="379.157" xlink:href="#lg9" y1="530.117" y2="419.971"/><linearGradient id="lg10"><stop offset="0" stop-color="#814aa0" stop-opacity="0"/><stop offset=".2347" stop-color="#814aa0" stop-opacity=".017"/><stop offset=".3932" stop-color="#814aa0" stop-opacity=".073"/><stop offset=".5293" stop-color="#814aa0" stop-opacity=".168"/><stop offset=".6527" stop-color="#814aa0" stop-opacity=".303"/><stop offset=".7675" stop-color="#814aa0" stop-opacity=".476"/><stop offset=".8759" stop-color="#814aa0" stop-opacity=".69"/><stop offset=".9776" stop-color="#814aa0" stop-opacity=".938"/><stop offset="1" stop-color="#814aa0"/></linearGradient><linearGradient id="SVGID_00000052096905364489912350000007143144751321850296_" gradientTransform="matrix(.94 .342 .342 -.94 -160.879 418.816)" gradientUnits="userSpaceOnUse" x1="366.329" x2="428.038" xlink:href="#lg10" y1="488.538" y2="498.491"/><linearGradient id="SVGID_00000060718214235745165170000015853126256595460027_" gradientTransform="matrix(.94 .342 .342 -.94 -160.879 418.816)" gradientUnits="userSpaceOnUse" x1="322.082" x2="322.082" xlink:href="#lg10" y1="453.678" y2="427.062"/><linearGradient id="SVGID_00000169555814610652018930000005732677096654391937_" gradientTransform="matrix(-.964 .266 -.266 -.964 58.495 592.047)" gradientUnits="userSpaceOnUse" x1="-465.991" x2="-450.965" xlink:href="#lg2" y1="288.961" y2="284.022"/><linearGradient id="SVGID_00000085939346477008623150000006509508871551935915_" gradientTransform="matrix(-.964 .266 -.266 -.964 58.495 592.047)" gradientUnits="userSpaceOnUse" x1="-461.049" x2="-450.747" xlink:href="#lg3" y1="287.383" y2="282.131"/><linearGradient id="lg11"><stop offset="0" stop-color="#fff" stop-opacity="0"/><stop offset=".09248684" stop-color="#fff" stop-opacity=".024"/><stop offset=".2178" stop-color="#fff" stop-opacity=".092"/><stop offset=".3619" stop-color="#fff" stop-opacity=".203"/><stop offset=".52" stop-color="#fff" stop-opacity=".359"/><stop offset=".6897" stop-color="#fff" stop-opacity=".559"/><stop offset=".8661" stop-color="#fff" stop-opacity=".798"/><stop offset="1" stop-color="#fff"/></linearGradient><linearGradient id="SVGID_00000173855991157938819590000009215189718236119482_" gradientTransform="matrix(1 0 0 -1 0 514)" gradientUnits="userSpaceOnUse" x1="404.937" x2="391.927" xlink:href="#lg11" y1="331.992" y2="336.626"/><linearGradient id="SVGID_00000161618451547036963480000018055600681656338613_" gradientTransform="matrix(.921 -.389 -.389 -.921 162.397 622.266)" gradientUnits="userSpaceOnUse" x1="336.088" x2="401.972" xlink:href="#lg2" y1="170.669" y2="137.388"/><linearGradient id="SVGID_00000118375098697556355380000012986763690863920311_" gradientTransform="matrix(1 0 0 -1 0 514)" gradientUnits="userSpaceOnUse" x1="458.674" x2="458.674" xlink:href="#lg3" y1="122.921" y2="80.83"/><linearGradient id="SVGID_00000049918573307580619780000007589903366114270127_" gradientTransform="matrix(-.266 -.964 -.964 .266 2772.416 699.799)" gradientUnits="userSpaceOnUse" x1="1043.953" x2="1077.96" xlink:href="#lg3" y1="2160.132" y2="2137.588"/><linearGradient id="SVGID_00000148621821668711516400000006775882121924298372_" gradientTransform="matrix(1 0 0 -1 0 514)" gradientUnits="userSpaceOnUse" x1="424.62" x2="410.363" xlink:href="#lg3" y1="231.003" y2="249.538"/><linearGradient id="SVGID_00000154394699410255198160000006828047190962199953_" gradientTransform="matrix(-.966 -.259 .259 -.966 -2706.19 181.528)" gradientUnits="userSpaceOnUse" x1="-3046.271" x2="-2998.709" xlink:href="#lg4" y1="756.637" y2="756.637"/><linearGradient id="SVGID_00000062907399226650006200000000304565929171759262_" gradientTransform="matrix(-.966 -.259 .259 -.966 -2706.19 181.528)" gradientUnits="userSpaceOnUse" x1="-3014.628" x2="-2992.1" xlink:href="#lg5" y1="756.637" y2="756.637"/><linearGradient id="SVGID_00000026857983840239501430000008946540355250796980_" gradientTransform="matrix(-.966 -.259 .259 -.966 -2706.19 181.528)" gradientUnits="userSpaceOnUse" x1="-3014.911" x2="-3014.911" xlink:href="#lg5" y1="750.788" y2="696.889"/><linearGradient id="SVGID_00000060722961679379368390000005456533787851881398_" gradientTransform="matrix(-.966 -.259 .259 -.966 -2706.19 181.528)" gradientUnits="userSpaceOnUse" x1="-2991.791" x2="-2964.391" xlink:href="#lg4" y1="756.637" y2="756.637"/><linearGradient id="SVGID_00000008835874080911154730000007558696916077173677_" gradientTransform="matrix(-.966 -.259 .259 -.966 -2706.19 181.528)" gradientUnits="userSpaceOnUse" x1="-2978.091" x2="-2978.091" xlink:href="#lg5" y1="708.554" y2="698.096"/><linearGradient id="SVGID_00000065059386525948439480000006758112705536628129_" gradientTransform="matrix(-.72 -.694 .694 -.72 -2965.804 -1947.845)" gradientUnits="userSpaceOnUse" x1="-3947.278" x2="-3949.295" xlink:href="#lg2" y1="822.014" y2="803.862"/><linearGradient id="SVGID_00000062877411974880702230000013381467459038363040_" gradientTransform="matrix(1 0 0 -1 0 514)" gradientUnits="userSpaceOnUse" x1="410.801" x2="397.435" xlink:href="#lg11" y1="300.203" y2="301.094"/><linearGradient id="SVGID_00000102532335408141634850000004016616660470238084_" gradientTransform="matrix(-.72 -.694 .694 -.72 -2965.804 -1947.845)" gradientUnits="userSpaceOnUse" x1="-3966.436" x2="-3965.865" xlink:href="#lg2" y1="813.653" y2="799.084"/><linearGradient id="SVGID_00000127024807674796967510000012476394154551871371_" gradientTransform="matrix(1 0 0 -1 0 514)" gradientUnits="userSpaceOnUse" x1="410.376" x2="399.861" xlink:href="#lg11" y1="277.725" y2="278.26"/><linearGradient id="SVGID_00000157268264299817832540000001219787445252210337_" gradientTransform="matrix(.921 -.389 -.389 -.921 162.397 622.266)" gradientUnits="userSpaceOnUse" x1="372.61" x2="438.494" xlink:href="#lg2" y1="242.968" y2="209.686"/><linearGradient id="lg12"><stop offset="0" stop-color="#fff9f6"/><stop offset=".1983" stop-color="#f8f1ee"/><stop offset=".495" stop-color="#e5dddb"/><stop offset=".8517" stop-color="#c7bbbb"/><stop offset="1" stop-color="#b9acac"/></linearGradient><linearGradient id="SVGID_00000103953348581337025030000000090662027445649062_" gradientTransform="matrix(1 0 0 -1 0 514)" gradientUnits="userSpaceOnUse" x1="121.262" x2="121.262" xlink:href="#lg12" y1="99.634" y2="86.782"/><linearGradient id="SVGID_00000050622991011774031030000010162010410230602120_" gradientTransform="matrix(1 0 0 -1 0 514)" gradientUnits="userSpaceOnUse" x1="390.738" x2="390.738" xlink:href="#lg12" y1="99.634" y2="86.782"/><linearGradient id="SVGID_00000170242045491146890220000015744396051626647955_" gradientTransform="matrix(1 0 0 -1 0 514)" gradientUnits="userSpaceOnUse" x1="255.53" x2="256.599" xlink:href="#lg4" y1="78.325" y2="1.334"/><linearGradient id="SVGID_00000180334325595123407370000014750910607827000737_" gradientTransform="matrix(1 0 0 -1 0 514)" gradientUnits="userSpaceOnUse" x1="145.149" x2="145.149" xlink:href="#lg4" y1="27.712" y2="69.065"/><linearGradient id="SVGID_00000145059782817751698520000005448386424593195658_" gradientTransform="matrix(1 0 0 -1 0 514)" gradientUnits="userSpaceOnUse" x1="256" x2="256" xlink:href="#lg4" y1="27.712" y2="69.065"/><linearGradient id="SVGID_00000094617712232856704400000015552430441211203218_" gradientTransform="matrix(1 0 0 -1 0 514)" gradientUnits="userSpaceOnUse" x1="366.852" x2="366.852" xlink:href="#lg4" y1="27.712" y2="69.065"/><linearGradient id="SVGID_00000031178710113323778430000002670089562070569910_" gradientTransform="matrix(1 0 0 -1 0 514)" gradientUnits="userSpaceOnUse" x1="256" x2="256" xlink:href="#lg5" y1="30.485" y2="1.935"/><linearGradient id="SVGID_00000106835593160946248800000018251523457630566293_" gradientTransform="matrix(1 0 0 -1 0 514)" gradientUnits="userSpaceOnUse" x1="485.238" x2="510.901" xlink:href="#lg5" y1="44.465" y2="44.465"/><linearGradient id="SVGID_00000182511603192501875260000006651004649531427516_" gradientTransform="matrix(1 0 0 -1 0 514)" gradientUnits="userSpaceOnUse" x1="128.246" x2="143.722" xlink:href="#lg2" y1="120.336" y2="101.82"/><linearGradient id="SVGID_00000142140989439398873150000000428065766588742821_" gradientTransform="matrix(-1 0 0 -1 -1936.713 514)" gradientUnits="userSpaceOnUse" x1="-2071.436" x2="-2062.835" xlink:href="#lg3" y1="109.824" y2="96.062"/><linearGradient id="SVGID_00000152262730109582637830000017914740593014588838_" gradientTransform="matrix(1 0 0 -1 0 514)" gradientUnits="userSpaceOnUse" x1="97.358" x2="118.914" xlink:href="#lg2" y1="114.974" y2="110.553"/><linearGradient id="SVGID_00000082337171384743319580000003219462152606832826_" gradientTransform="matrix(-1 0 0 -1 -1936.713 514)" gradientUnits="userSpaceOnUse" x1="-2044.385" x2="-2033.245" xlink:href="#lg3" y1="111.968" y2="94.274"/><linearGradient id="SVGID_00000168119342041498276060000009345167839448097965_" gradientTransform="matrix(1 0 0 -1 0 514)" gradientUnits="userSpaceOnUse" x1="72.559" x2="93.009" xlink:href="#lg2" y1="112.432" y2="109.392"/><linearGradient id="SVGID_00000035492176427432855420000009228207728105750435_" gradientTransform="matrix(-1 0 0 -1 -1936.713 514)" gradientUnits="userSpaceOnUse" x1="-2018.333" x2="-2008.83" xlink:href="#lg3" y1="109.993" y2="96.232"/><linearGradient id="SVGID_00000031173746685265158120000014043991223836058770_" gradientTransform="matrix(1 0 0 -1 0 514)" gradientUnits="userSpaceOnUse" x1="47.955" x2="68.682" xlink:href="#lg2" y1="113.908" y2="102.301"/><g><g><path d="m449.5 424.5c0 4.4-1.7 8.5-4.5 11.4s-6.6 4.7-10.9 4.7h-356.3c-8.5 0-15.3-7.2-15.3-16.1 0-42.9 16.6-81.6 43.4-109.7 26.9-28.1 63.9-45.4 104.9-45.4h90.4c81.9-.1 148.3 69.4 148.3 155.1z" fill="url(#SVGID_1_)"/><path d="m449.5 424.5c0 4.4-1.7 8.5-4.5 11.4s-6.6 4.7-10.9 4.7h-356.3c-8.5 0-15.3-7.2-15.3-16.1 0-42.9 16.6-81.6 43.4-109.7 26.9-28.1 63.9-45.4 104.9-45.4h90.4c81.9-.1 148.3 69.4 148.3 155.1z" fill="url(#SVGID_00000013892492015309519580000005813339760363378861_)"/><path d="m301.2 269.3h-45.3v171.2h178.3c4.2 0 8.1-1.8 10.9-4.7s4.5-6.9 4.5-11.4c-.1-85.6-66.5-155.1-148.4-155.1z" fill="url(#SVGID_00000127011033308251945110000001693716237913917324_)"/><path d="m301.2 269.3h-90.4c-31.8 0-61.2 10.4-85.3 28.2v30l113 113h195.7c4.2 0 8.1-1.8 10.9-4.7s4.5-6.9 4.5-11.4c-.1-85.6-66.5-155.1-148.4-155.1z" fill="url(#SVGID_00000098943086651621187760000001610581423662850480_)"/><path d="m256 259.5h-65.6l1.7 17.1c1.5 15.2 12.1 29.1 28.7 37.5 21.4 10.8 49 10.8 70.4 0 16.6-8.4 27.2-22.2 28.7-37.5l1.7-17.1z" fill="url(#SVGID_00000118389030607467470220000001589022334707723190_)"/><path d="m256 259.5h-65.6l1.7 17.1c1.5 15.2 12.1 29.1 28.7 37.5 21.4 10.8 49 10.8 70.4 0 16.6-8.4 27.2-22.2 28.7-37.5l1.7-17.1z" fill="url(#SVGID_00000014630514001545981220000007186840882808981181_)"/></g><g><path d="m131.8 227.7 33.6-9 29 108.2-33.6 9c-20.4 5.5-41.4-6.7-46.9-27.1l-9.2-34.2c-5.5-20.4 6.7-41.5 27.1-46.9z" fill="url(#SVGID_00000145049431569391184120000002370668262548312465_)"/><path d="m116.6 235.7 27 100.8c5.5 1.1 11.4.9 17.1-.6l33.6-9-29-108.2-33.6 9c-5.7 1.5-10.8 4.3-15.1 8z" fill="url(#SVGID_00000150065487094401775060000012407528084385550465_)"/><path d="m107.8 286.4 6 22.4c5.5 20.4 26.5 32.5 46.9 27.1l33.6-9-15.9-59.4z" fill="url(#SVGID_00000015312378560427214960000010327412532821887146_)"/><g><path d="m158.2 217.4 13.4-3.6c3.6-1 7.3 1.2 8.3 4.8l27.1 101c1 3.6-1.2 7.3-4.8 8.3l-13.4 3.6c-3.6 1-7.3-1.2-8.3-4.8l-27.1-101c-1-3.6 1.2-7.3 4.8-8.3z" fill="url(#SVGID_00000059296883597528086380000004390561666166641064_)"/><path d="m172.8 298.3 7.6 28.4c1 3.6 4.7 5.7 8.3 4.8l13.4-3.6c3.6-1 5.7-4.7 4.8-8.3l-7.6-28.4z" fill="url(#SVGID_00000158721508767977645330000004325488785186122915_)"/></g></g><g><g><path d="m135.8 117.8c6.8-18.8 25.6-29.7 44.6-27.5 5.1.6 8.2 5.8 6.5 10.7l-22.8 62.6c-1.7 4.8-7.5 6.8-11.8 4-16-10.6-23.3-31-16.5-49.8z" fill="url(#SVGID_00000057840716928886259110000002449105661781870262_)"/><path d="m159.6 142.4 19.8-54.3c21.3-58.4 85.9-88.6 144.3-67.3 58.4 21.3 88.6 85.9 67.3 144.3l-19.8 54.3c-21.3 58.4-85.9 88.6-144.3 67.3-58.5-21.3-88.6-85.9-67.3-144.3z" fill="url(#SVGID_00000103248464349948724430000011523124860257204389_)"/><path d="m179.3 88.1-19.8 54.3c-1.8 5-3.2 10-4.3 15l209.6 76.3c2.4-4.6 4.5-9.3 6.4-14.3l19.8-54.3c1.2-3.3 2.2-6.5 3.1-9.8l-210.8-76.7c-1.4 3.1-2.8 6.2-4 9.5z" fill="url(#SVGID_00000101796149914636885550000005185640963431322270_)"/><path d="m323.7 20.8-96.8 265.9c58.4 21.3 123.1-8.9 144.3-67.3l19.8-54.3c21.2-58.4-8.9-123-67.3-144.3z" fill="url(#SVGID_00000130607466322699947500000000841897128225047962_)"/><path d="m154 164.1c-7.9 51.9 21.6 104 72.8 122.6 51.3 18.7 107.3-2.2 134.6-47.1z" fill="url(#SVGID_00000170970180540993975970000003254389673071527820_)"/><g><path d="m258.6 217.8-11.7-4.3c-9.7-3.5-13.9-15-8.7-24l16.7-28.9c2.1-3.7 6.6-5.3 10.6-3.8l15.3 5.6c4 1.5 6.4 5.6 5.6 9.8l-5.7 32.9c-1.8 10.1-12.4 16.2-22.1 12.7z" fill="url(#SVGID_00000057145721901926327950000008449014912827900852_)"/><path d="m258.6 217.8-11.7-4.3c-9.7-3.5-13.9-15-8.7-24l16.7-28.9c2.1-3.7 6.6-5.3 10.6-3.8l15.3 5.6c4 1.5 6.4 5.6 5.6 9.8l-5.7 32.9c-1.8 10.1-12.4 16.2-22.1 12.7z" fill="url(#SVGID_00000170994448926615034360000005903807192078779318_)"/><path d="m246.9 213.5 11.7 4.3c9.7 3.5 20.3-2.6 22.1-12.8l5.7-32.9c.7-4.2-1.6-8.3-5.6-9.8l-15.3-5.6c-4-1.5-8.5.2-10.6 3.8l-16.7 28.9c-5.2 9.1-1 20.6 8.7 24.1z" fill="url(#SVGID_00000143575859191771370900000012175528779880551307_)"/></g><g><path d="m207.3 187.6c-8.5-3.1-12.9-12.5-9.8-21l2.9-7.9c3.1-8.5 12.5-12.9 21-9.8 8.5 3.1 12.9 12.5 9.8 21l-2.9 7.9c-3.1 8.5-12.5 12.9-21 9.8z" fill="url(#SVGID_00000096042413217349230850000000104210837050593670_)"/><path d="m305.6 223.4c-8.5-3.1-12.9-12.5-9.8-21l2.9-7.9c3.1-8.5 12.5-12.9 21-9.8 8.5 3.1 12.9 12.5 9.8 21l-2.9 7.9c-3.1 8.5-12.5 12.9-21 9.8z" fill="url(#SVGID_00000143575825609363567470000012412768400651973265_)"/></g></g><path d="m343 108.7c5-13.7 22.5-19.8 39.2-13.7s26.2 22.1 21.2 35.7c-5 13.7-22.5 19.8-39.2 13.7-16.6-6-26.1-22-21.2-35.7z" fill="url(#SVGID_00000063624627599974198770000004418250853080480928_)"/><path d="m343 108.7c5-13.7 22.5-19.8 39.2-13.7s26.2 22.1 21.2 35.7c-5 13.7-22.5 19.8-39.2 13.7-16.6-6-26.1-22-21.2-35.7z" fill="url(#SVGID_00000145747672220609070750000005074628296597195685_)"/><g><path d="m337 123.9 62.9 22.9-6.8 18.8-63-23z" fill="url(#SVGID_00000176737801209477645350000003358470431968469901_)"/><path d="m337 123.9 62.9 22.9-6.8 18.8-63-23z" fill="url(#SVGID_00000110457534154462402470000005743122709293811364_)"/><path d="m337 123.9 62.9 22.9-6.8 18.8-63-23z" fill="url(#SVGID_00000010998748060979257110000011978811156635990443_)"/><path d="m133.8 50 78.7 28.6-6.8 18.7-78.7-28.6c-5.2-1.9-7.8-7.6-5.9-12.8 1.8-5.1 7.5-7.8 12.7-5.9z" fill="url(#SVGID_00000124841906767939783580000016809753018250154368_)"/><path d="m137.2 72.4 6.8-18.7 68.5 24.9-6.8 18.7z" fill="url(#SVGID_00000137824202024587196050000003097853925714922910_)"/><g><path d="m402.9 162c-1.7 4.8-7 7.3-11.8 5.6-3.7-1.3-5.6-5.4-4.2-9.1l6.9-18.9c2.3-6.3 1.8-12.9-.8-18.5-2.7-5.8-7.6-10.5-14.1-12.7-12.6-4.3-26.2 2.7-30.8 15.2l-6.7 18.4c-1.3 3.7-5.4 5.6-9.1 4.2l-149.2-54.3c-4.8-1.7-7.2-7-5.5-11.8l.4-1.2c22.7-62.3 91.7-94.4 154-71.5 62.2 22.9 93.5 92.4 70.9 154.6z" fill="url(#SVGID_00000021099222870612998120000016484473707639043764_)"/><path d="m402.9 162c-1.7 4.8-7 7.3-11.8 5.6-1.8-.7-3.2-2-4-3.7-.8-1.6-.9-3.6-.2-5.4l6.9-18.9c2.3-6.3 1.8-12.9-.8-18.5-.7-1.6-1.6-3-2.7-4.4-2.8-3.7-6.7-6.7-11.5-8.3-12.6-4.3-26.2 2.7-30.8 15.1l-6.7 18.4c-1.3 3.7-5.4 5.6-9.1 4.2l-91-33.1c-3.9-1.4-5.5-6.9-3.6-12.3l.5-1.4c17.4-47.9 52.1-82.6 88.6-93.8 1.7.6 3.5 1.2 5.2 1.8 46 16.9 75.1 59.4 77.9 105.5 1.2 16.4-1 33-6.9 49.2z" fill="url(#SVGID_00000081635410908216506460000011775577007873151114_)"/><path d="m402.9 162c-1.7 4.8-7 7.3-11.8 5.6-1.8-.7-3.2-2-4-3.7-.8-1.6-.9-3.6-.2-5.4l6.9-18.9c2.3-6.3 1.8-12.9-.8-18.5-.7-1.6-1.6-3-2.7-4.4-2.8-3.7-6.7-6.7-11.5-8.3-12.6-4.3-26.2 2.7-30.8 15.1l-6.7 18.4c-1.3 3.7-5.4 5.6-9.1 4.2l-91-33.1c-3.9-1.4-5.5-6.9-3.6-12.3l.5-1.4c17.4-47.9 52.1-82.6 88.6-93.8 1.7.6 3.5 1.2 5.2 1.8 46 16.9 75.1 59.4 77.9 105.5 1.2 16.4-1 33-6.9 49.2z" fill="url(#SVGID_00000052096905364489912350000007143144751321850296_)"/><path d="m178.1 78.9-.4 1.2c-1.7 4.8.7 10 5.5 11.8l149.2 54.3c3.7 1.3 7.7-.6 9.1-4.2l6.7-18.4c4.5-12.5 18.2-19.4 30.8-15.2 6.5 2.2 11.4 6.9 14.1 12.7 2.6 5.6 3.1 12.2.8 18.5l-6.9 18.9c-1.3 3.7.6 7.7 4.2 9.1 4.8 1.7 10.1-.8 11.8-5.6 5.4-14.8 7.7-30.1 7.3-45l-209.7-76.2c-9.5 10.8-17.3 23.7-22.5 38.1z" fill="url(#SVGID_00000060718214235745165170000015853126256595460027_)"/></g></g></g><g><path d="m405.1 165.1c-4.7 3.8-5.6 10.7-2.4 15.9 1.5 2.6 3.9 4.5 6.7 5.5l11.7 4.2c12.7 4.6 22.3 15.2 25.9 28 .1.5.3 1 .4 1.5-.4-3.4-1-6.8-1.9-10.2-1.6-5.8-4-11.4-7.3-16.8l-15.1-25c-3.8-6.2-12.2-7.8-18-3.1z" fill="url(#SVGID_00000169555814610652018930000005732677096654391937_)"/><path d="m405.1 165.1c-4.7 3.8-5.6 10.7-2.4 15.9 1.5 2.6 3.9 4.5 6.7 5.5l11.7 4.2c12.7 4.6 22.3 15.2 25.9 28 .1.5.3 1 .4 1.5-.4-3.4-1-6.8-1.9-10.2-1.6-5.8-4-11.4-7.3-16.8l-15.1-25c-3.8-6.2-12.2-7.8-18-3.1z" fill="url(#SVGID_00000085939346477008623150000006509508871551935915_)"/><path d="m405.1 165.1c-4.7 3.8-5.6 10.7-2.4 15.9 1.5 2.6 3.9 4.5 6.7 5.5l11.7 4.2c12.7 4.6 22.3 15.2 25.9 28 .1.5.3 1 .4 1.5-.4-3.4-1-6.8-1.9-10.2-1.6-5.8-4-11.4-7.3-16.8l-15.1-25c-3.8-6.2-12.2-7.8-18-3.1z" fill="url(#SVGID_00000173855991157938819590000009215189718236119482_)"/><path d="m467.5 249.6c.6 2.1 2.8 16.5 4.3 26 .9 5.7.8 11.4-.3 17.1-1 5.6-3 11-5.8 16-2.8 4.9-3.3 10.9-1.3 16.2l39.3 104.9-73.3 30.9c-5.9-36.7-14.9-92.8-19.1-119-1.3-8-3.2-15.9-5.6-23.6-2.2-7.2-4.6-16.1-5.8-20.5-.5-2-1.2-4-2.1-5.8-5.2-11-12.6-20.9-21.8-28.9-4.6-4-5.9-10.5-3.5-15.9.3-.8.8-1.5 1.3-2.3 4.4-6.3 13.2-7.7 19.3-3.1 6.4 4.8 12.6 10 18.5 15.5l1.2-1.8c3.6-5.3 6-11 7.3-17l-10.5-4.7c-6.1-2.7-8.8-9.8-6.1-15.9s9.8-8.8 15.9-6.1l25.1 11.2c11.4 5 19.8 15 23 26.8z" fill="url(#SVGID_00000161618451547036963480000018055600681656338613_)"/><path d="m430.4 460.6 73.3-30.9-27.7-73.8h-62.5c4.8 29 11.9 73.7 16.9 104.7z" fill="url(#SVGID_00000118375098697556355380000012986763690863920311_)"/><path d="m372.5 246.9c-2.4 5.4-1.1 11.9 3.5 15.9 9.2 8 16.6 17.8 21.8 28.8.9 1.9 1.6 3.8 2.1 5.8.8 2.9 2 7.6 3.4 12.5l46.4-12.8c-2.5-2.2-4.2-5.3-4.3-8.9l-.6-28.1c-.1-6.6-4.1-12.6-10.2-15.3l-14.6-6.5c-1.3 6-3.7 11.7-7.3 17l-1.2 1.8c-5.9-5.5-12-10.7-18.5-15.5-6.2-4.6-14.9-3.2-19.3 3.1-.4.6-.8 1.4-1.2 2.2z" fill="url(#SVGID_00000049918573307580619780000007589903366114270127_)"/><path d="m372.5 246.9c-2.4 5.4-1.1 11.9 3.5 15.9 9.2 8 16.6 17.8 21.8 28.8.9 1.9 1.6 3.8 2.1 5.8.8 2.9 2 7.6 3.4 12.5l46.4-12.8c-2.5-2.2-4.2-5.3-4.3-8.9l-.6-28.1c-.1-6.6-4.1-12.6-10.2-15.3l-14.6-6.5c-1.3 6-3.7 11.7-7.3 17l-1.2 1.8c-5.9-5.5-12-10.7-18.5-15.5-6.2-4.6-14.9-3.2-19.3 3.1-.4.6-.8 1.4-1.2 2.2z" fill="url(#SVGID_00000148621821668711516400000006775882121924298372_)"/></g><g><path d="m385.7 284.6-33.6-9 29-108.2 33.6 9c20.4 5.5 32.5 26.5 27.1 46.9l-9.2 34.2c-5.5 20.5-26.5 32.6-46.9 27.1z" fill="url(#SVGID_00000154394699410255198160000006828047190962199953_)"/><path d="m429.8 184.5-27 100.8c-5.5 1.1-11.4.9-17.1-.6l-33.6-9 29-108.2 33.6 9c5.7 1.5 10.9 4.3 15.1 8z" fill="url(#SVGID_00000062907399226650006200000000304565929171759262_)"/><path d="m438.6 235.1-6 22.4c-5.5 20.4-26.5 32.5-46.9 27.1l-33.6-9 15.9-59.4z" fill="url(#SVGID_00000026857983840239501430000008946540355250796980_)"/><g><path d="m357.7 280.3-13.4-3.6c-3.6-1-5.7-4.7-4.8-8.3l27.1-101c1-3.6 4.7-5.7 8.3-4.8l13.4 3.6c3.6 1 5.7 4.7 4.8 8.3l-27.1 101c-1 3.6-4.7 5.8-8.3 4.8z" fill="url(#SVGID_00000060722961679379368390000005456533787851881398_)"/><path d="m373.6 247.1-7.6 28.4c-1 3.6-4.7 5.7-8.3 4.8l-13.4-3.6c-3.6-1-5.7-4.7-4.8-8.3l7.6-28.4z" fill="url(#SVGID_00000008835874080911154730000007558696916077173677_)"/></g></g><g><path d="m464.5 232.6c0 2.3-.2 4.7-.6 7.1-1.1 6.6-7.3 11-13.9 9.9s-11-7.3-9.9-13.9c1.1-6.5-1.7-13.2-7.2-17l-22.6-15.6c-5.5-3.8-6.8-11.3-3-16.8s11.3-6.8 16.8-3l22.6 15.6c11.2 7.7 17.7 20.4 17.8 33.7z" fill="url(#SVGID_00000065059386525948439480000006758112705536628129_)"/><path d="m464.5 232.6c0 2.3-.2 4.7-.6 7.1-1.1 6.6-7.3 11-13.9 9.9s-11-7.3-9.9-13.9c1.1-6.5-1.7-13.2-7.2-17l-22.6-15.6c-5.5-3.8-6.8-11.3-3-16.8s11.3-6.8 16.8-3l22.6 15.6c11.2 7.7 17.7 20.4 17.8 33.7z" fill="url(#SVGID_00000062877411974880702230000013381467459038363040_)"/><path d="m409.6 197.3c-.3.4-.6.7-.8 1.1-3.6 5.6-1.9 13.1 3.7 16.6l20.9 13.3 2.3 1.5c5.5 3.5 8.6 10 7.9 16.4 6.7 14.2 8.1 25.2 2.9 30.6-1.2 1.2-1 3.2.4 4s3.1 1.3 4.8 1.4c6.5.5 12.2-4.5 13-10.9l2.8-21.9c0-.3.1-.6.1-.9 1.6-15.5-5.7-30.8-18.9-39.2l-23.2-14.7c-5.3-3.2-12.1-2-15.9 2.7z" fill="url(#SVGID_00000102532335408141634850000004016616660470238084_)"/><path d="m409.6 197.3c-.3.4-.6.7-.8 1.1-3.6 5.6-1.9 13.1 3.7 16.6l20.9 13.3 2.3 1.5c5.5 3.5 8.6 10 7.9 16.4 6.7 14.2 8.1 25.2 2.9 30.6-1.2 1.2-1 3.2.4 4s3.1 1.3 4.8 1.4c6.5.5 12.2-4.5 13-10.9l2.8-21.9c0-.3.1-.6.1-.9 1.6-15.5-5.7-30.8-18.9-39.2l-23.2-14.7c-5.3-3.2-12.1-2-15.9 2.7z" fill="url(#SVGID_00000127024807674796967510000012476394154551871371_)"/><path d="m467.5 249.6c.9 3.2 1.4 6.6 1.5 10l.6 28.1c.1 6.7-5.1 12.2-11.8 12.3s-12.2-5.1-12.3-11.8l-.6-28.1c-.1-6.6-4.1-12.6-10.2-15.3l-25.1-11.2c-6.1-2.7-8.8-9.8-6.1-15.9s9.8-8.8 15.9-6.1l25.1 11.2c11.4 5 19.8 15 23 26.8z" fill="url(#SVGID_00000157268264299817832540000001219787445252210337_)"/></g><g><g><path d="m45.1 415.3h152.3c5 0 9.1 4.1 9.1 9.1v14.5h-170.5v-14.5c0-5.1 4.1-9.1 9.1-9.1z" fill="url(#SVGID_00000103953348581337025030000000090662027445649062_)"/><path d="m314.6 415.3h152.3c5 0 9.1 4.1 9.1 9.1v14.5h-170.5v-14.5c0-5.1 4.1-9.1 9.1-9.1z" fill="url(#SVGID_00000050622991011774031030000010162010410230602120_)"/></g><g><path d="m12.8 427.1h486.4c7.1 0 12.8 5.7 12.8 12.8v59.4c0 7.1-5.7 12.8-12.8 12.8h-486.4c-7.1-.1-12.8-5.8-12.8-12.9v-59.4c0-7 5.7-12.7 12.8-12.7z" fill="url(#SVGID_00000170242045491146890220000015744396051626647955_)"/><g><path d="m116.3 450.6h57.7c6.3 0 11.4 5.1 11.4 11.4v15c0 6.3-5.1 11.4-11.4 11.4h-57.7c-6.3 0-11.4-5.1-11.4-11.4v-15c0-6.2 5.1-11.4 11.4-11.4z" fill="url(#SVGID_00000180334325595123407370000014750910607827000737_)"/><path d="m227.1 450.6h57.7c6.3 0 11.4 5.1 11.4 11.4v15c0 6.3-5.1 11.4-11.4 11.4h-57.7c-6.3 0-11.4-5.1-11.4-11.4v-15c0-6.2 5.1-11.4 11.4-11.4z" fill="url(#SVGID_00000145059782817751698520000005448386424593195658_)"/><path d="m338 450.6h57.7c6.3 0 11.4 5.1 11.4 11.4v15c0 6.3-5.1 11.4-11.4 11.4h-57.7c-6.3 0-11.4-5.1-11.4-11.4v-15c0-6.2 5.1-11.4 11.4-11.4z" fill="url(#SVGID_00000094617712232856704400000015552430441211203218_)"/></g><path d="m0 452.9v46.3c0 7.1 5.7 12.8 12.8 12.8h486.4c7.1 0 12.8-5.7 12.8-12.8v-46.3z" fill="url(#SVGID_00000031178710113323778430000002670089562070569910_)"/><path d="m499.2 427.1h-148.7v84.9h148.7c7.1 0 12.8-5.7 12.8-12.8v-59.4c0-7-5.7-12.7-12.8-12.7z" fill="url(#SVGID_00000106835593160946248800000018251523457630566293_)"/></g></g><g><path d="m136.2 422.5c9.2 0 16.6-7.4 16.6-16.6v-6.1c0-8.8-7.9-16.1-16.6-16.1-15.5 0-16.5 10.7-16.6 11.4v10.8c0 9.2 7.4 16.6 16.6 16.6z" fill="url(#SVGID_00000182511603192501875260000006651004649531427516_)"/><path d="m136.2 422.5c9.2 0 16.6-7.4 16.6-16.6v-6.1c0-8.8-7.9-16.1-16.6-16.1-15.5 0-16.5 10.7-16.6 11.4v10.8c0 9.2 7.4 16.6 16.6 16.6z" fill="url(#SVGID_00000142140989439398873150000000428065766588742821_)"/><path d="m108.9 422.5c9.2 0 16.6-7.4 16.6-16.6v-9.6c0-8.8-7.9-16.1-16.6-16.1-15.5 0-16.5 10.7-16.6 11.4v14.3c0 9.2 7.4 16.6 16.6 16.6z" fill="url(#SVGID_00000152262730109582637830000017914740593014588838_)"/><path d="m108.9 422.5c9.2 0 16.6-7.4 16.6-16.6v-9.6c0-8.8-7.9-16.1-16.6-16.1-15.5 0-16.5 10.7-16.6 11.4v14.3c0 9.2 7.4 16.6 16.6 16.6z" fill="url(#SVGID_00000082337171384743319580000003219462152606832826_)"/><path d="m83.1 422.5c9.2 0 16.6-7.4 16.6-16.6v-6.1c0-8.8-7.9-16.1-16.6-16.1-15.5 0-16.5 10.7-16.6 11.4v10.8c0 9.2 7.4 16.6 16.6 16.6z" fill="url(#SVGID_00000168119342041498276060000009345167839448097965_)"/><path d="m83.1 422.5c9.2 0 16.6-7.4 16.6-16.6v-6.1c0-8.8-7.9-16.1-16.6-16.1-15.5 0-16.5 10.7-16.6 11.4v10.8c0 9.2 7.4 16.6 16.6 16.6z" fill="url(#SVGID_00000035492176427432855420000009228207728105750435_)"/><path d="m58.5 422.5c9.2 0 16.6-7.4 16.6-16.6v-.5c0-8.8-7.9-16.1-16.6-16.1-15.5 0-16.5 10.7-16.6 11.4v5.2c0 9.2 7.4 16.6 16.6 16.6z" fill="url(#SVGID_00000031173746685265158120000014043991223836058770_)"/></g></g></svg>