<?xml version="1.0" encoding="UTF-8"?>
<!DOCTYPE svg PUBLIC "-//W3C//DTD SVG 1.1//EN" "http://www.w3.org/Graphics/SVG/1.1/DTD/svg11.dtd">
<!-- Creator: CorelDRAW 2021.5 -->
<svg xmlns="http://www.w3.org/2000/svg" xml:space="preserve" width="15.1077mm" height="14.3894mm" version="1.1" style="shape-rendering:geometricPrecision; text-rendering:geometricPrecision; image-rendering:optimizeQuality; fill-rule:evenodd; clip-rule:evenodd"
viewBox="0 0 37.1 35.33"
 xmlns:xlink="http://www.w3.org/1999/xlink"
 xmlns:xodm="http://www.corel.com/coreldraw/odm/2003">
 <defs>
  <style type="text/css">
   <![CDATA[
    .fil1 {fill:#FEFEFE}
    .fil2 {fill:#FF865F}
    .fil0 {fill:#FF865F}
   ]]>
  </style>
 </defs>
 <g id="Layer_x0020_1">
  <metadata id="CorelCorpID_0Corel-Layer"/>
  <g id="_1378134685504">
   <path class="fil0" d="M31.05 24.57c-0.02,-0.05 -0.07,-0.07 -0.1,-0.12 0.25,0.71 0.47,1.43 0.72,2.14 0.62,1.47 0.02,4.07 -0.72,5.18 -0.94,1.4 -2.26,2.61 -4.51,2.95 -3,0.45 -5.04,-1.16 -7.52,-2.12 -2.23,-0.21 -5.41,4.18 -10.34,1.33 -1.31,-0.76 -2.41,-2 -2.9,-3.85 -0.69,-2.57 0.2,-3.57 0.69,-5.54 -6.67,-4.54 -8.9,-14.19 0.55,-15.79 0.05,-4.04 2.28,-8.42 7.14,-8.04 2.38,0.5 3.6,1.5 4.56,1.97 1.54,-1.33 2.16,-1.85 4.46,-2.09 5.26,-0.64 6.5,4.3 7.29,8.04 9.87,1.09 6.1,12.93 0.67,15.93zm-22.94 -21.59c-0.97,1.81 -1.54,2.81 -1.66,5.25 -3.1,0.55 -5.43,1.78 -6.23,5.02 -0.72,2.92 0.45,6.37 2.31,8.7 0.87,1.12 2.03,2.09 3.25,2.81 -1.04,3.04 -1.14,6.16 0.92,8.23 5.04,5.09 10.24,0.36 11.76,0.1 1.56,-0.29 5.36,3.97 10.37,1.31 1.71,-0.9 3.03,-2.71 3.4,-4.54 0.27,-1.31 0,-2 0.07,-3.11 -0.07,-0.26 -0.12,-0.55 -0.2,-0.81 -0.25,-0.26 -0.42,-0.88 -0.52,-1.31 0.42,-0.17 0.84,-0.5 1.19,-0.76 0.87,-0.74 1.84,-1.81 2.5,-2.76 1.14,-1.81 1.84,-3.92 1.84,-6.09 -0.05,-3.68 -2.36,-6.56 -6.35,-6.82 -0.1,-1.95 -0.67,-3.78 -1.54,-5.09 -1.66,-2.45 -4.81,-3.76 -7.74,-2.78 -1.61,0.55 -1.88,1.14 -2.88,1.76 -1.17,-1.07 -2.98,-2.09 -5.31,-2.07 -2.58,0.29 -3.45,1.07 -5.18,2.97z"/>
   <path class="fil1" d="M31.67 26.59c-0.25,-0.71 -0.47,-1.43 -0.72,-2.14 0.02,0.05 0.07,0.07 0.1,0.12 5.43,-3 9.2,-14.83 -0.67,-15.93 -0.79,-3.73 -2.03,-8.82 -7.29,-8.18 -2.31,0.24 -2.93,0.9 -4.46,2.23 -0.97,-0.48 -2.08,-1.71 -4.46,-2.21 -4.86,-0.38 -7.19,4.23 -7.24,8.27 -9.45,1.59 -7.22,11.24 -0.55,15.79 -0.5,1.97 -1.39,2.97 -0.69,5.54 0.5,1.85 1.59,3.09 2.9,3.85 4.94,2.85 8.11,-1.55 10.34,-1.33 2.48,0.95 4.51,2.57 7.52,2.12 2.26,-0.33 3.57,-1.55 4.51,-2.95 0.74,-1.12 1.34,-3.71 0.72,-5.18z"/>
   <g>
    <path class="fil2" d="M13.93 20.72l-3.77 4.3c-0.99,1.26 -1.14,2.09 -1.14,3.71 0.22,1.76 1.46,2.66 3.42,2.54l2.98 -1.28c1.14,-0.64 3.55,-1.14 5.01,-0.64 0.79,0.29 1.44,0.64 2.16,1 0.74,0.38 1.69,0.9 2.78,1 1.09,0.14 1.59,-0.26 2.41,-0.78 0.57,-0.64 0.69,-0.86 0.55,-2.83l-0.35 -1.31c-0.12,-0.12 -0.72,-1.28 -0.74,-1.38l-0.52 -0.74c-0.37,-0.48 -0.62,-0.67 -0.94,-1 -0.37,-0.19 -1.86,-1.69 -2.03,-2.16l-0.37 -0.48 -0.45 -0.59 -0.3 -0.36 -0.45 -0.55c-0.99,-1.21 -1.49,-1.9 -3.7,-1.81 -2.18,0.17 -3.35,1.83 -4.54,3.35z"/>
    <path class="fil2" d="M21.97 4.44c-0.55,0.24 -0.99,1 -1.09,1.07 -0.12,0.19 -0.25,0.38 -0.37,0.57 -0.2,0.36 -0.4,0.74 -0.6,1.09 -0.15,0.48 -0.27,0.95 -0.42,1.43 -0.05,0.31 -0.1,0.59 -0.15,0.9 -0.07,1.38 -0.02,2.57 0.5,3.73 0.2,0.45 0.57,0.97 0.82,1.24 3.37,3.23 6.1,-2.83 6.1,-5.61 0.02,-1.66 -0.52,-3.87 -2.11,-4.64 -1.36,-0.64 -1.76,-0.26 -2.68,0.21z"/>
    <path class="fil2" d="M11.65 4.98c-0.22,0.36 -0.47,0.69 -0.69,1.05 -0.12,0.36 -0.22,0.74 -0.35,1.09 -0.05,0.33 -0.1,0.64 -0.15,0.97 0,1.14 0.02,2.16 0.4,3.26 0.4,1.24 1.02,2.33 2.01,3.16 3.27,3.14 5.31,-1.5 4.99,-5.18 -0.07,-0.81 -0.3,-1.38 -0.57,-2.14 -0.1,-0.21 -0.2,-0.45 -0.3,-0.67 -0.02,-0.02 -0.02,-0.02 -0.12,-0.14 -0.02,-0.05 -0.07,-0.12 -0.1,-0.17 -0.52,-0.88 -1.31,-1.74 -2.33,-2.07 -1.12,-0.38 -2.06,0.05 -2.78,0.83z"/>
    <path class="fil2" d="M25.61 15.94c-0.42,1.28 -1.07,2.28 -0.67,3.95 0.3,1.24 1.22,2 2.73,1.93 0.89,-0.14 1.12,-0.21 1.93,-0.64 2.51,-1.52 5.23,-5.44 3.05,-8.08 -2.26,-2.76 -5.8,0.93 -7.04,2.85z"/>
    <path class="fil2" d="M4.83 12.81c-0.6,0.67 -0.69,0.9 -0.82,1.83 0,1.69 -0.05,2.04 0.92,3.78 0.57,0.93 1.09,1.74 1.98,2.31 1.09,0.71 1.31,0.88 2.55,1.16 2.8,0.52 3.45,-2.57 2.83,-4.45 -0.15,-0.33 -0.3,-0.69 -0.45,-1.02 -0.35,-1.14 -1.86,-2.71 -2.88,-3.33 -0.6,-0.38 -0.74,-0.48 -1.41,-0.67 -0.42,-0.05 -0.62,-0.12 -1.29,-0.12 -0.5,0 -0.97,0.31 -1.44,0.5z"/>
   </g>
  </g>
 </g>
</svg>
